<mxfile host="app.diagrams.net" modified="2023-03-23T14:54:06.862Z" agent="5.0 (Windows)" etag="TBqJm3gz0BzRQndgDma6" version="21.0.10" type="github">
  <diagram id="C5RBs43oDa-KdzZeNtuy" name="Page-1">
    <mxGraphModel dx="2261" dy="782" grid="1" gridSize="10" guides="1" tooltips="1" connect="1" arrows="1" fold="1" page="1" pageScale="1" pageWidth="827" pageHeight="1169" math="0" shadow="0">
      <root>
        <mxCell id="WIyWlLk6GJQsqaUBKTNV-0" />
        <mxCell id="WIyWlLk6GJQsqaUBKTNV-1" parent="WIyWlLk6GJQsqaUBKTNV-0" />
        <mxCell id="O--lZXJFw4apnebJmmAg-2" value="" style="edgeStyle=orthogonalEdgeStyle;rounded=0;orthogonalLoop=1;jettySize=auto;html=1;" edge="1" parent="WIyWlLk6GJQsqaUBKTNV-1" source="O--lZXJFw4apnebJmmAg-0" target="O--lZXJFw4apnebJmmAg-1">
          <mxGeometry relative="1" as="geometry" />
        </mxCell>
        <mxCell id="O--lZXJFw4apnebJmmAg-0" value="START" style="ellipse;whiteSpace=wrap;html=1;" vertex="1" parent="WIyWlLk6GJQsqaUBKTNV-1">
          <mxGeometry x="140" y="110" width="120" height="80" as="geometry" />
        </mxCell>
        <mxCell id="O--lZXJFw4apnebJmmAg-4" value="" style="edgeStyle=orthogonalEdgeStyle;rounded=0;orthogonalLoop=1;jettySize=auto;html=1;" edge="1" parent="WIyWlLk6GJQsqaUBKTNV-1" source="O--lZXJFw4apnebJmmAg-1" target="O--lZXJFw4apnebJmmAg-3">
          <mxGeometry relative="1" as="geometry" />
        </mxCell>
        <mxCell id="O--lZXJFw4apnebJmmAg-1" value="podaj x i y" style="whiteSpace=wrap;html=1;" vertex="1" parent="WIyWlLk6GJQsqaUBKTNV-1">
          <mxGeometry x="140" y="230" width="120" height="60" as="geometry" />
        </mxCell>
        <mxCell id="O--lZXJFw4apnebJmmAg-7" value="" style="edgeStyle=orthogonalEdgeStyle;rounded=0;orthogonalLoop=1;jettySize=auto;html=1;" edge="1" parent="WIyWlLk6GJQsqaUBKTNV-1" source="O--lZXJFw4apnebJmmAg-3" target="O--lZXJFw4apnebJmmAg-6">
          <mxGeometry relative="1" as="geometry" />
        </mxCell>
        <mxCell id="O--lZXJFw4apnebJmmAg-8" value="NIE" style="edgeLabel;html=1;align=center;verticalAlign=middle;resizable=0;points=[];" vertex="1" connectable="0" parent="O--lZXJFw4apnebJmmAg-7">
          <mxGeometry x="-0.2019" relative="1" as="geometry">
            <mxPoint y="-10" as="offset" />
          </mxGeometry>
        </mxCell>
        <mxCell id="O--lZXJFw4apnebJmmAg-10" value="" style="edgeStyle=orthogonalEdgeStyle;rounded=0;orthogonalLoop=1;jettySize=auto;html=1;" edge="1" parent="WIyWlLk6GJQsqaUBKTNV-1" source="O--lZXJFw4apnebJmmAg-3" target="O--lZXJFw4apnebJmmAg-9">
          <mxGeometry relative="1" as="geometry" />
        </mxCell>
        <mxCell id="O--lZXJFw4apnebJmmAg-11" value="TAK" style="edgeLabel;html=1;align=center;verticalAlign=middle;resizable=0;points=[];" vertex="1" connectable="0" parent="O--lZXJFw4apnebJmmAg-10">
          <mxGeometry x="-0.1889" relative="1" as="geometry">
            <mxPoint x="4" y="-10" as="offset" />
          </mxGeometry>
        </mxCell>
        <mxCell id="O--lZXJFw4apnebJmmAg-18" value="" style="edgeStyle=orthogonalEdgeStyle;rounded=0;orthogonalLoop=1;jettySize=auto;html=1;" edge="1" parent="WIyWlLk6GJQsqaUBKTNV-1" source="O--lZXJFw4apnebJmmAg-3" target="O--lZXJFw4apnebJmmAg-17">
          <mxGeometry relative="1" as="geometry" />
        </mxCell>
        <mxCell id="O--lZXJFw4apnebJmmAg-3" value="x&amp;gt;y" style="rhombus;whiteSpace=wrap;html=1;" vertex="1" parent="WIyWlLk6GJQsqaUBKTNV-1">
          <mxGeometry x="160" y="330" width="80" height="80" as="geometry" />
        </mxCell>
        <mxCell id="O--lZXJFw4apnebJmmAg-15" value="" style="edgeStyle=orthogonalEdgeStyle;rounded=0;orthogonalLoop=1;jettySize=auto;html=1;" edge="1" parent="WIyWlLk6GJQsqaUBKTNV-1" source="O--lZXJFw4apnebJmmAg-6">
          <mxGeometry relative="1" as="geometry">
            <mxPoint x="200" y="480" as="targetPoint" />
            <Array as="points">
              <mxPoint x="360" y="480" />
            </Array>
          </mxGeometry>
        </mxCell>
        <mxCell id="O--lZXJFw4apnebJmmAg-16" value="TAK" style="edgeLabel;html=1;align=center;verticalAlign=middle;resizable=0;points=[];" vertex="1" connectable="0" parent="O--lZXJFw4apnebJmmAg-15">
          <mxGeometry x="0.0882" y="-1" relative="1" as="geometry">
            <mxPoint x="-89" y="-49" as="offset" />
          </mxGeometry>
        </mxCell>
        <mxCell id="O--lZXJFw4apnebJmmAg-6" value="&lt;div&gt;c=x&lt;/div&gt;&lt;div&gt;x=y&lt;/div&gt;&lt;div&gt;y=c&lt;br&gt;&lt;/div&gt;" style="whiteSpace=wrap;html=1;" vertex="1" parent="WIyWlLk6GJQsqaUBKTNV-1">
          <mxGeometry x="293.5" y="340" width="120" height="60" as="geometry" />
        </mxCell>
        <mxCell id="O--lZXJFw4apnebJmmAg-9" value="a mod b" style="whiteSpace=wrap;html=1;" vertex="1" parent="WIyWlLk6GJQsqaUBKTNV-1">
          <mxGeometry x="-10" y="340" width="120" height="60" as="geometry" />
        </mxCell>
        <mxCell id="O--lZXJFw4apnebJmmAg-20" value="" style="edgeStyle=orthogonalEdgeStyle;rounded=0;orthogonalLoop=1;jettySize=auto;html=1;" edge="1" parent="WIyWlLk6GJQsqaUBKTNV-1" source="O--lZXJFw4apnebJmmAg-17" target="O--lZXJFw4apnebJmmAg-19">
          <mxGeometry relative="1" as="geometry" />
        </mxCell>
        <mxCell id="O--lZXJFw4apnebJmmAg-17" value="x = mod y" style="whiteSpace=wrap;html=1;" vertex="1" parent="WIyWlLk6GJQsqaUBKTNV-1">
          <mxGeometry x="140" y="510" width="120" height="60" as="geometry" />
        </mxCell>
        <mxCell id="O--lZXJFw4apnebJmmAg-22" value="" style="edgeStyle=orthogonalEdgeStyle;rounded=0;orthogonalLoop=1;jettySize=auto;html=1;" edge="1" parent="WIyWlLk6GJQsqaUBKTNV-1" source="O--lZXJFw4apnebJmmAg-19" target="O--lZXJFw4apnebJmmAg-21">
          <mxGeometry relative="1" as="geometry">
            <Array as="points">
              <mxPoint x="110" y="650" />
              <mxPoint x="110" y="650" />
            </Array>
          </mxGeometry>
        </mxCell>
        <mxCell id="O--lZXJFw4apnebJmmAg-23" value="TAK" style="edgeLabel;html=1;align=center;verticalAlign=middle;resizable=0;points=[];" vertex="1" connectable="0" parent="O--lZXJFw4apnebJmmAg-22">
          <mxGeometry x="-0.1905" y="1" relative="1" as="geometry">
            <mxPoint y="-11" as="offset" />
          </mxGeometry>
        </mxCell>
        <mxCell id="O--lZXJFw4apnebJmmAg-27" value="" style="edgeStyle=orthogonalEdgeStyle;rounded=0;orthogonalLoop=1;jettySize=auto;html=1;" edge="1" parent="WIyWlLk6GJQsqaUBKTNV-1" source="O--lZXJFw4apnebJmmAg-19" target="O--lZXJFw4apnebJmmAg-26">
          <mxGeometry relative="1" as="geometry" />
        </mxCell>
        <mxCell id="O--lZXJFw4apnebJmmAg-28" value="NIE" style="edgeLabel;html=1;align=center;verticalAlign=middle;resizable=0;points=[];" vertex="1" connectable="0" parent="O--lZXJFw4apnebJmmAg-27">
          <mxGeometry x="-0.1889" y="-1" relative="1" as="geometry">
            <mxPoint y="-11" as="offset" />
          </mxGeometry>
        </mxCell>
        <mxCell id="O--lZXJFw4apnebJmmAg-19" value="z&amp;gt;0" style="rhombus;whiteSpace=wrap;html=1;" vertex="1" parent="WIyWlLk6GJQsqaUBKTNV-1">
          <mxGeometry x="160" y="610" width="80" height="80" as="geometry" />
        </mxCell>
        <mxCell id="O--lZXJFw4apnebJmmAg-25" value="" style="edgeStyle=orthogonalEdgeStyle;rounded=0;orthogonalLoop=1;jettySize=auto;html=1;" edge="1" parent="WIyWlLk6GJQsqaUBKTNV-1" source="O--lZXJFw4apnebJmmAg-21">
          <mxGeometry relative="1" as="geometry">
            <mxPoint x="200" y="480" as="targetPoint" />
            <Array as="points">
              <mxPoint x="40" y="480" />
              <mxPoint x="50" y="480" />
            </Array>
          </mxGeometry>
        </mxCell>
        <mxCell id="O--lZXJFw4apnebJmmAg-21" value="&lt;div&gt;x = y&lt;/div&gt;&lt;div&gt;y = x&lt;br&gt;&lt;/div&gt;" style="whiteSpace=wrap;html=1;" vertex="1" parent="WIyWlLk6GJQsqaUBKTNV-1">
          <mxGeometry x="-20" y="610" width="120" height="60" as="geometry" />
        </mxCell>
        <mxCell id="O--lZXJFw4apnebJmmAg-30" value="" style="edgeStyle=orthogonalEdgeStyle;rounded=0;orthogonalLoop=1;jettySize=auto;html=1;entryX=0;entryY=0.5;entryDx=0;entryDy=0;" edge="1" parent="WIyWlLk6GJQsqaUBKTNV-1" source="O--lZXJFw4apnebJmmAg-26" target="O--lZXJFw4apnebJmmAg-31">
          <mxGeometry relative="1" as="geometry">
            <mxPoint x="520" y="680" as="targetPoint" />
          </mxGeometry>
        </mxCell>
        <mxCell id="O--lZXJFw4apnebJmmAg-26" value="WyÅ›wietl y" style="whiteSpace=wrap;html=1;" vertex="1" parent="WIyWlLk6GJQsqaUBKTNV-1">
          <mxGeometry x="300" y="620" width="120" height="60" as="geometry" />
        </mxCell>
        <mxCell id="O--lZXJFw4apnebJmmAg-31" value="STOP" style="ellipse;whiteSpace=wrap;html=1;" vertex="1" parent="WIyWlLk6GJQsqaUBKTNV-1">
          <mxGeometry x="480" y="610" width="120" height="80" as="geometry" />
        </mxCell>
      </root>
    </mxGraphModel>
  </diagram>
</mxfile>
